<svg xmlns="http://www.w3.org/2000/svg" version="1.1" xmlns:xlink="http://www.w3.org/1999/xlink" xmlns:svgjs="http://svgjs.dev/svgjs" width="1000" height="1000" viewBox="0 0 1000 1000"><rect width="1000" height="1000" fill="#ffffff"></rect><g transform="matrix(0.7,0,0,0.7,150,106.25)"><svg viewBox="0 0 320 360" data-background-color="#ffffff" preserveAspectRatio="xMidYMid meet" height="1125" width="1000" xmlns="http://www.w3.org/2000/svg" xmlns:xlink="http://www.w3.org/1999/xlink"><g id="tight-bounds" transform="matrix(1,0,0,1,0,0)"><svg viewBox="0 0 320 360" height="360" width="320"><g><svg></svg></g><g><svg viewBox="0 0 320 360" height="360" width="320"><g><path xmlns="http://www.w3.org/2000/svg" d="M159.823 340.15v0c-7.794 0-14.524-4.96-16.65-12.399-1.063-3.897-5.314-6.022-8.856-4.96-1.417 0.354-2.834 1.417-3.897 2.834-5.668 7.794-16.296 9.919-24.444 4.251-4.96-3.188-7.794-8.856-7.439-14.878 0-3.897-3.188-7.439-7.085-7.44-1.771 0-3.188 0.354-4.605 1.417-7.794 5.668-18.775 4.251-24.444-3.542-3.543-4.605-4.605-10.628-2.479-16.296 1.417-3.897-0.709-7.794-4.606-9.21-1.417-0.354-3.188-0.354-4.605 0-9.211 3.188-19.13-1.771-22.318-10.982-1.771-5.314-1.063-11.69 2.48-16.296 2.48-3.188 1.771-7.794-1.417-9.919-1.417-1.063-2.834-1.417-4.605-1.417-9.565 0.354-17.713-7.439-17.713-17.004 0-6.022 2.834-11.336 7.439-14.879 3.188-2.126 3.897-6.731 1.771-9.919-1.063-1.417-2.126-2.126-3.896-2.834-9.211-2.834-14.524-12.753-11.691-21.963 1.771-5.668 6.022-9.919 11.691-11.691 3.897-1.063 6.022-5.314 4.959-8.856-0.354-1.417-1.417-2.834-2.834-3.897-7.794-5.668-9.919-16.296-4.251-24.443 3.188-4.96 8.856-7.794 14.879-7.44 3.897 0 7.439-3.188 7.439-7.085 0-1.771-0.354-3.188-1.417-4.605-5.668-7.794-4.251-18.775 3.543-24.443 4.605-3.543 10.628-4.605 16.295-2.48 3.897 1.417 7.794-0.709 9.211-4.605 0.354-1.417 0.354-3.188 0-4.606-3.188-9.211 1.771-19.13 10.982-22.318 5.314-1.771 11.69-1.063 16.295 2.48 3.188 2.48 7.794 1.771 9.919-1.417 1.063-1.417 1.417-2.834 1.417-4.605-0.354-9.565 7.439-17.713 17.005-17.713 6.022 0 11.336 2.834 14.878 7.439 2.126 3.188 6.731 3.897 9.919 1.772 1.417-1.063 2.126-2.126 2.834-3.897 2.834-9.211 12.753-14.524 21.964-11.69 5.668 1.771 9.919 6.022 11.69 11.69v0c0.709 2.48 2.834 4.605 5.668 4.96 2.834 0.354 5.314-0.709 7.085-2.835 5.668-7.794 16.296-9.919 24.444-4.251 4.96 3.188 7.794 8.856 7.439 14.879 0 3.897 3.188 7.439 7.085 7.439 1.771 0 3.188-0.354 4.605-1.417 7.794-5.668 18.775-4.251 24.444 3.543 3.543 4.605 4.605 10.628 2.48 16.296-1.417 3.897 0.709 7.794 4.605 9.21 1.417 0.354 3.188 0.354 4.605 0 9.211-3.188 19.13 1.771 22.318 10.982 1.771 5.314 1.063 11.69-2.48 16.296-2.48 3.188-1.771 7.794 1.417 9.919 1.417 1.063 2.834 1.417 4.606 1.417 9.565-0.354 17.713 7.439 17.712 17.004 0 6.022-2.834 11.336-7.439 14.878-2.48 1.417-3.543 4.251-3.188 7.085 0.354 2.834 2.48 4.96 4.959 5.669 9.211 2.834 14.524 12.753 11.691 21.963-1.771 5.668-6.022 9.919-11.691 11.691-3.897 1.063-6.022 5.314-4.959 8.856 0.354 1.417 1.417 2.834 2.834 3.897 7.794 5.668 9.919 16.296 4.251 24.443-3.188 4.96-8.856 7.794-14.879 7.439-2.834 0-5.314 1.417-6.731 3.897-1.417 2.48-1.063 5.314 0.709 7.794 5.668 7.794 4.251 18.775-3.543 24.443-4.605 3.543-10.628 4.605-16.295 2.48-3.897-1.417-7.794 0.709-9.211 4.605-0.354 1.417-0.354 3.188 0 4.606 3.188 9.211-1.771 19.13-10.982 22.317-5.314 1.771-11.69 1.063-16.295-2.479-3.188-2.48-7.794-1.771-9.919 1.417-1.063 1.417-1.417 2.834-1.417 4.605 0.354 9.565-7.439 17.713-17.005 17.713-6.022 0-11.336-2.834-14.878-7.44-1.417-2.126-4.251-3.543-7.085-2.834-2.834 0.354-4.96 2.48-5.668 4.96-2.126 7.439-8.856 12.399-16.65 12.399zM136.088 312.518c1.063 0 1.771 0 2.834 0.354 6.731 1.063 12.045 5.668 13.816 12.045 1.063 3.897 5.314 6.022 8.856 4.605 2.126-0.709 3.897-2.48 4.605-4.605 2.834-9.211 12.753-14.524 21.964-11.691 3.543 1.063 7.085 3.543 9.211 6.731 2.48 3.188 6.731 3.897 10.273 1.417 1.771-1.417 2.834-3.543 2.834-5.668-0.354-9.565 7.439-17.713 17.004-17.712 3.897 0 7.794 1.063 10.982 3.542 3.188 2.48 7.794 1.771 9.919-1.417 1.417-1.771 1.771-4.605 1.063-6.731-3.188-9.211 1.417-19.13 10.627-22.318 3.897-1.417 7.794-1.417 11.691 0 3.897 1.417 7.794-0.709 9.21-4.605 0.709-2.126 0.354-4.96-1.062-6.731-5.668-7.794-4.251-18.775 3.542-24.443 3.188-2.48 7.085-3.543 10.982-3.543 3.897 0 7.085-3.188 7.439-7.085 0-2.48-1.063-4.605-3.188-6.022-7.794-5.668-9.919-16.296-4.251-24.443 2.126-3.188 5.314-5.668 9.211-6.731 3.897-1.063 6.022-5.314 4.605-8.857-0.709-2.126-2.48-3.897-4.605-4.605-9.211-2.834-14.524-12.753-11.691-21.964 1.063-3.543 3.543-7.085 6.731-9.21 3.188-2.48 3.897-7.085 1.417-10.273-1.417-1.771-3.543-2.834-5.668-2.834-9.565 0.354-17.713-7.439-17.713-17.005 0-3.897 1.063-7.794 3.543-10.981 2.48-3.188 1.771-7.794-1.417-9.92-1.771-1.417-4.605-1.771-6.731-1.062-9.211 3.188-19.13-1.417-22.318-10.628-1.417-3.897-1.417-7.794 0-11.69 1.417-3.897-0.709-7.794-4.605-9.211-2.126-0.709-4.96-0.354-6.731 1.063-7.794 5.668-18.775 4.251-24.443-3.543-2.48-3.188-3.543-7.085-3.543-10.981 0-3.897-3.188-7.085-7.439-7.085-2.126 0-4.605 1.063-5.668 2.834-5.668 7.794-16.296 9.919-24.444 4.251-3.188-2.126-5.668-5.314-6.731-9.211v0c-1.063-3.897-5.314-6.022-8.856-4.605-2.126 0.709-3.897 2.48-4.605 4.605-2.834 9.211-12.753 14.524-21.964 11.69-3.543-1.063-7.085-3.543-9.21-6.73-2.48-3.188-6.731-3.897-10.274-1.417-1.771 1.417-2.834 3.543-2.834 5.668 0.354 9.565-7.439 17.713-17.004 17.712-3.897 0-7.794-1.063-10.982-3.542-3.188-2.48-7.794-1.771-9.919 1.417-1.417 1.771-1.771 4.605-1.063 6.731 3.188 9.211-1.417 19.13-10.627 22.317-3.897 1.417-7.794 1.417-11.691 0-3.897-1.417-7.794 0.709-9.21 4.606-0.709 2.126-0.354 4.96 1.063 6.731 5.668 7.794 4.251 18.775-3.543 24.443-3.188 2.48-7.085 3.543-10.982 3.543-3.897 0-7.085 3.188-7.085 7.439 0 2.126 1.063 4.605 2.834 5.668 7.794 5.668 9.919 16.296 4.251 24.443-2.126 3.188-5.314 5.668-9.21 6.731-3.897 1.063-6.022 5.314-4.606 8.856 0.709 2.126 2.48 3.897 4.606 4.606 9.211 2.834 14.524 12.753 11.69 21.963-1.063 3.543-3.543 7.085-6.731 9.211-3.188 2.48-3.897 6.731-1.417 10.273 1.417 1.771 3.543 2.834 5.668 2.834 9.565-0.354 17.713 7.439 17.713 17.004 0 3.897-1.063 7.794-3.543 10.982-2.48 3.188-1.771 7.794 1.417 9.919 1.771 1.417 4.605 1.771 6.731 1.063 9.211-3.188 19.13 1.417 22.318 10.628 1.417 3.897 1.417 7.794 0 11.69-1.417 3.897 0.709 7.794 4.605 9.211 2.126 0.709 4.96 0.354 6.731-1.063 7.794-5.668 18.775-4.251 24.444 3.542 2.48 3.188 3.543 7.085 3.542 10.982 0 3.897 3.188 7.085 7.085 7.44 2.48 0 4.605-1.063 6.023-3.189 3.543-4.605 8.856-7.439 14.524-7.439z" fill="#77d4fc" fill-rule="nonzero" stroke="none" stroke-width="1" stroke-linecap="butt" stroke-linejoin="miter" stroke-miterlimit="10" stroke-dasharray="" stroke-dashoffset="0" font-family="none" font-weight="none" font-size="none" text-anchor="none" style="mix-blend-mode: normal" data-fill-palette-color="tertiary"></path></g><g transform="matrix(1,0,0,1,56,150.95489357840248)"><svg viewBox="0 0 208 58.09021284319507" height="58.09021284319507" width="208"><g><svg viewBox="0 0 208 58.09021284319507" height="58.09021284319507" width="208"><g><svg viewBox="0 0 337.0918187020535 94.14295911587506" height="58.09021284319507" width="208"><g transform="matrix(1,0,0,1,129.09181870205347,13.011074667968266)"><svg viewBox="0 0 208 68.12080977993853" height="68.12080977993853" width="208"><g id="textblocktransform"><svg viewBox="0 0 208 68.12080977993853" height="68.12080977993853" width="208" id="textblock"><g><svg viewBox="0 0 208 42.22032866707243" height="42.22032866707243" width="208"><g transform="matrix(1,0,0,1,0,0)"><svg width="208" viewBox="1.2000000476837158 -29.600000381469727 164.27999877929688 33.349998474121094" height="42.22032866707243" data-palette-color="#77d4fc"><path d="M28.2-25.6Q28.3-25.5 28.65-25.48 29-25.45 29.28-25.2 29.55-24.95 30.13-23.55 30.7-22.15 30.7-21.23 30.7-20.3 30.48-19.28 30.25-18.25 29.75-18.25L29.75-18.25Q28.9-18.25 28.35-20.23 27.8-22.2 27.55-22.7L27.55-22.7Q26.15-25.65 24.55-27L24.55-27Q23.1-28.35 21.6-28.35L21.6-28.35Q20.95-28.35 20.3-28.1L20.3-28.1Q17.1-26.75 17.1-21.8L17.1-21.8Q17.1-20.2 17.7-18.03 18.3-15.85 19.55-14.2L19.55-14.2Q19.8-13.9 22.2-13.7L22.2-13.7Q23.45-13.55 23.65-12.83 23.85-12.1 23.05-11.7L23.05-11.7Q22.6-11.15 19.6-12L19.6-12Q18.8-12.2 18.55-12.25L18.55-12.25Q15.85-12.2 12.45-11.05 9.05-9.9 6.2-7.53 3.35-5.15 3.35-2.3L3.35-2.3Q3.35-0.15 5.1 1.18 6.85 2.5 10.73 2.5 14.6 2.5 19.38 1.3 24.15 0.1 26.88-1.3 29.6-2.7 32.25-5.25 34.9-7.8 34.9-9.65L34.9-9.65Q34.9-9.95 34.88-10.15 34.85-10.35 34.95-10.4L34.95-10.4Q35.25-10.55 35.45-10.35L35.45-10.35Q36.1-9.1 36.1-8.4L36.1-8.4Q36.1-6.35 34.75-4.7L34.75-4.7Q32.4-1.85 29.45-0.2 26.5 1.45 21.38 2.6 16.25 3.75 12.85 3.75 9.45 3.75 7.08 3.15 4.7 2.55 2.95 0.75 1.2-1.05 1.2-3.68 1.2-6.3 2.48-8.13 3.75-9.95 5.53-10.95 7.3-11.95 9.8-12.6L9.8-12.6Q13.5-13.6 18.05-13.85L18.05-13.85Q14.8-17.55 14.2-22.4L14.2-22.4Q14.15-22.95 14.15-23.45L14.15-23.45Q14.15-25.25 15.03-26.78 15.9-28.3 17.95-28.95 20-29.6 21-29.6 22-29.6 22.48-29.48 22.95-29.35 23.3-29.23 23.65-29.1 24-28.88 24.35-28.65 24.6-28.5 24.85-28.35 25.2-28.03 25.55-27.7 25.7-27.58 25.85-27.45 26.25-27.08 26.65-26.7 26.75-26.65L26.75-26.65Q27.5-25.75 28.2-25.6L28.2-25.6ZM44.65-9.7L44.65-9.7 52.05-9.75Q54.8-9.75 54.8-9.15L54.8-9.15Q54.8-8.15 44.15-7.9L44.15-7.9Q44-7.9 43.9-7.9L43.9-7.9Q43-7.9 43-8.35L43-8.35Q43-9.05 44.1-9.55L44.1-9.55Q44.4-9.7 44.65-9.7ZM73.85-29.25L73.85-29.25Q74.75-29.6 75.4-29.6L75.4-29.6Q77.6-29.6 78.3-28.4L78.3-28.4Q78.7-27.8 78.7-27.35L78.7-27.35Q78.7-23.95 73-18.8L73-18.8Q67.95-14.35 63.7-11.15L63.7-11.15Q62.3-8 60.8-3.4L60.8-3.4Q62.6-5.6 65.35-8.5L65.35-8.5Q70.9-14.25 73.1-14.25L73.1-14.25Q74.2-14.25 74.25-13.15L74.25-13.15Q74.35-12 73.77-10.95 73.2-9.9 72.7-9L72.7-9Q70.35-5.1 70.35-2.05L70.35-2.05Q70.35-1.05 70.75-0.6L70.75-0.6Q71.45 0.2 72.75-0.5 74.05-1.2 76.37-3.3 78.7-5.4 80.15-7.4L80.15-7.4Q80.4-7.65 80.62-7.53 80.85-7.4 80.85-7.28 80.85-7.15 80.75-7L80.75-7Q80-5.65 78.05-3.58 76.1-1.5 74.9-0.6L74.9-0.6Q72.6 1.15 70.5 1.15L70.5 1.15Q68.6 1.15 67.95-0.75L67.95-0.75Q67.8-1.2 67.8-1.83 67.8-2.45 67.9-3.15L67.9-3.15Q68.15-5.25 70.55-9.7L70.55-9.7Q71.05-10.6 71.05-10.98 71.05-11.35 70.65-11.35L70.65-11.35Q69.85-11.35 67.55-9.35L67.55-9.35Q66-7.9 62.97-3.88 59.95 0.15 59.55 0.4L59.55 0.4Q57.75 1.3 57.32 1.3 56.9 1.3 56.85 1.18 56.8 1.05 56.9 0.85 57 0.65 57.7-1.35L57.7-1.35Q60.05-8 60.9-10.15L60.9-10.15Q59.25-8.05 56.8-5.4L56.8-5.4Q56.4-5 56.4-5.58 56.4-6.15 56.85-6.75 57.3-7.35 58.72-9.08 60.15-10.8 60.75-11.65L60.75-11.65Q60.3-11.9 60.27-12.35 60.25-12.8 60.57-12.98 60.9-13.15 61.65-12.85L61.65-12.85Q62.15-13.55 62.55-14.4L62.55-14.4Q68.5-27.2 73.85-29.25ZM76.65-25.5L76.65-25.5Q77.3-26.7 77.3-27.53 77.3-28.35 76.57-28.35 75.85-28.35 74.65-27.45L74.65-27.45Q69.15-23.25 64.7-13.4L64.7-13.4Q67.95-15.5 71.5-19 75.05-22.5 76.65-25.5ZM91.04-14.55L91.04-14.55Q93.74-14.55 93.74-11.95L93.74-11.95Q93.74-10.6 92.99-9.75L92.99-9.75Q91.74-7.9 88.94-6.53 86.14-5.15 84.19-5L84.19-5Q83.49-4.95 83.44-5.4L83.44-5.4Q83.39-5.6 83.57-5.65 83.74-5.7 83.84-5.7L83.84-5.7Q84.99-5.8 86.79-6.8L86.79-6.8Q90.14-8.6 91.69-10.5L91.69-10.5Q92.34-11.4 92.34-12.23 92.34-13.05 91.54-13.05L91.54-13.05Q90.89-13.05 89.79-12.5L89.79-12.5Q87.44-11.4 84.84-8.68 82.24-5.95 81.44-3.35L81.44-3.35Q81.19-2.55 81.19-1.78 81.19-1 81.84-0.3 82.49 0.4 83.84 0.4L83.84 0.4Q85.34 0.4 87.29-0.4L87.29-0.4Q92.94-2.7 95.99-7.35L95.99-7.35Q96.29-7.75 96.54-7.5L96.54-7.5Q96.74-7.4 96.74-7.25 96.74-7.1 96.59-6.9L96.59-6.9Q95.09-4.4 92.79-2.45L92.79-2.45Q88.34 1.35 84.14 1.35L84.14 1.35Q80.54 1.35 79.09-0.8L79.09-0.8Q78.54-1.65 78.54-2.85 78.54-4.05 79.19-5.7L79.19-5.7Q80.44-8.55 84.54-11.55 88.64-14.55 91.04-14.55ZM97.94 0.55L97.94 0.55Q97.14 0.55 96.22 0.08 95.29-0.4 94.64-1.28 93.99-2.15 93.99-3.15 93.99-4.15 94.44-5.05L94.44-5.05Q95.44-7.15 97.67-9.13 99.89-11.1 102.29-12.5 104.69-13.9 106.09-14.25 107.49-14.6 108.82-14.6 110.14-14.6 111.09-13.93 112.04-13.25 112.04-12.5L112.04-12.5Q112.04-12.25 111.99-12.2 111.94-12.15 111.74-12.25L111.74-12.25Q111.14-13.2 109.27-13.2 107.39-13.2 105.02-11.98 102.64-10.75 100.54-8.9L100.54-8.9Q98.79-7.25 97.47-5.18 96.14-3.1 96.14-2.15L96.14-2.15Q96.14-0.3 97.19-0.3 98.24-0.3 100.39-2L100.39-2Q103.94-5 105.24-6.4L105.24-6.4Q109.84-11.35 110.19-11.35L110.19-11.35Q110.79-11.35 111.64-11 112.49-10.65 112.19-10.15L112.19-10.15Q109.64-6.55 109.19-2.9L109.19-2.9Q109.14-2.45 109.14-1.75 109.14-1.05 109.54-0.6L109.54-0.6Q110.29 0.2 111.59-0.5 112.89-1.2 115.22-3.3 117.54-5.4 118.94-7.4L118.94-7.4Q119.14-7.65 119.39-7.53 119.64-7.4 119.64-7.3L119.64-7.3Q119.64-6.55 117.27-4.03 114.89-1.5 113.64-0.6L113.64-0.6Q111.29 1.15 109.29 1.15L109.29 1.15Q107.39 1.15 106.74-0.75L106.74-0.75Q106.59-1.35 106.59-2.1L106.59-2.1Q106.59-4.35 107.54-6.85L107.54-6.85Q107.34-6.75 105.69-4.85 104.04-2.95 101.87-1.2 99.69 0.55 97.94 0.55ZM135.64-25.5L135.64-25.5Q136.24-26.6 136.24-27.2L136.24-27.2Q136.24-28.25 135.39-28.25L135.39-28.25Q134.69-28.25 133.64-27.45L133.64-27.45Q129.64-24.35 125.89-17.65L125.89-17.65Q122.89-12.25 121.49-8.4L121.49-8.4Q124.94-10.75 129.21-16.05 133.49-21.35 135.64-25.5ZM120.74-6.4L120.74-6.4Q120.14-4.7 120.09-4.13 120.04-3.55 120.04-2.58 120.04-1.6 120.54-0.8L120.54-0.8Q121.39 0.55 123.39-0.6L123.39-0.6Q124.89-1.4 127.19-3.53 129.49-5.65 130.74-7.4L130.74-7.4Q130.84-7.55 131.04-7.55L131.04-7.55Q131.49-7.55 131.29-6.9L131.29-6.9Q130.54-5.55 128.51-3.45 126.49-1.35 124.84-0.13 123.19 1.1 121.54 1.1L121.54 1.1Q117.74 1.1 117.74-2.6L117.74-2.6Q117.74-2.75 117.74-2.9L117.74-2.9Q117.94-6.4 121.29-13.48 124.64-20.55 127.34-24.15L127.34-24.15 128.89-26.1Q129.44-26.75 130.49-27.7L130.49-27.7Q132.49-29.6 134.61-29.6 136.74-29.6 137.49-28.3L137.49-28.3Q137.74-27.85 137.74-27 137.74-26.15 136.99-24.6L136.99-24.6Q131.84-15.65 120.74-6.4ZM137.39-13.95L138.04-14Q141.89-14.35 142.71-14.35 143.54-14.35 143.54-14.1L143.54-14.1Q143.54-13.8 142.36-13.48 141.19-13.15 136.64-12.65L136.64-12.65Q136.39-12.2 136.04-11.6L136.04-11.6Q135.29-10.4 135.24-10.15L135.24-10.15Q132.39-4.45 132.24-2.9L132.24-2.9Q132.19-2.45 132.19-1.75 132.19-1.05 132.59-0.6L132.59-0.6Q133.29 0.2 134.59-0.5 135.89-1.2 138.21-3.3 140.54-5.4 141.99-7.4L141.99-7.4Q142.19-7.65 142.49-7.5L142.49-7.5Q143.24-7.15 139.89-3.55L139.89-3.55Q136.69-0.1 134.54 0.7L134.54 0.7Q133.29 1.15 132.44 1.15L132.44 1.15Q130.44 1.15 129.79-0.75L129.79-0.75Q129.69-1.1 129.69-1.6L129.69-1.6Q129.69-3.35 131.29-6.9L131.29-6.9Q131.04-6.35 129.34-4.4L129.34-4.4Q128.89-3.9 128.64-4.4L128.64-4.4Q128.59-4.5 128.59-4.67 128.59-4.85 128.79-5.1L128.79-5.1Q131.24-8.15 132.64-10.25L132.64-10.25Q132.64-10.3 133.74-12.35L133.74-12.35Q133.24-12.25 132.71-12.25 132.19-12.25 131.94-12.58 131.69-12.9 131.89-13.35L131.89-13.35Q132.24-14.15 134.54-14.25L134.54-14.25Q134.59-14.35 134.74-14.35L134.74-14.35 137.24-19Q137.44-19.4 137.69-19.83 137.94-20.25 138.06-20.48 138.19-20.7 138.34-20.95 138.49-21.2 138.59-21.3 138.69-21.4 138.79-21.5L138.79-21.5Q138.99-21.8 139.96-21.8 140.94-21.8 141.29-21.25L141.29-21.25Q141.44-21.05 141.44-20.58 141.44-20.1 141.09-19.53 140.74-18.95 140.34-18.7 139.94-18.45 139.79-18.15L139.79-18.15 137.39-13.95ZM158.48-29.25L158.48-29.25Q159.38-29.6 160.03-29.6L160.03-29.6Q162.23-29.6 162.93-28.4L162.93-28.4Q163.33-27.8 163.33-27.35L163.33-27.35Q163.33-23.95 157.63-18.8L157.63-18.8Q152.58-14.35 148.33-11.15L148.33-11.15Q146.93-8 145.43-3.4L145.43-3.4Q147.23-5.6 149.98-8.5L149.98-8.5Q155.53-14.25 157.73-14.25L157.73-14.25Q158.83-14.25 158.88-13.15L158.88-13.15Q158.98-12 158.41-10.95 157.83-9.9 157.33-9L157.33-9Q154.98-5.1 154.98-2.05L154.98-2.05Q154.98-1.05 155.38-0.6L155.38-0.6Q156.08 0.2 157.38-0.5 158.68-1.2 161.01-3.3 163.33-5.4 164.78-7.4L164.78-7.4Q165.03-7.65 165.26-7.53 165.48-7.4 165.48-7.28 165.48-7.15 165.38-7L165.38-7Q164.63-5.65 162.68-3.58 160.73-1.5 159.53-0.6L159.53-0.6Q157.23 1.15 155.13 1.15L155.13 1.15Q153.23 1.15 152.58-0.75L152.58-0.75Q152.43-1.2 152.43-1.83 152.43-2.45 152.53-3.15L152.53-3.15Q152.78-5.25 155.18-9.7L155.18-9.7Q155.68-10.6 155.68-10.98 155.68-11.35 155.28-11.35L155.28-11.35Q154.48-11.35 152.18-9.35L152.18-9.35Q150.63-7.9 147.61-3.88 144.58 0.15 144.18 0.4L144.18 0.4Q142.38 1.3 141.96 1.3 141.53 1.3 141.48 1.18 141.43 1.05 141.53 0.85 141.63 0.65 142.33-1.35L142.33-1.35Q144.68-8 145.53-10.15L145.53-10.15Q143.88-8.05 141.43-5.4L141.43-5.4Q141.03-5 141.03-5.58 141.03-6.15 141.48-6.75 141.93-7.35 143.36-9.08 144.78-10.8 145.38-11.65L145.38-11.65Q144.93-11.9 144.91-12.35 144.88-12.8 145.21-12.98 145.53-13.15 146.28-12.85L146.28-12.85Q146.78-13.55 147.18-14.4L147.18-14.4Q153.13-27.2 158.48-29.25ZM161.28-25.5L161.28-25.5Q161.93-26.7 161.93-27.53 161.93-28.35 161.21-28.35 160.48-28.35 159.28-27.45L159.28-27.45Q153.78-23.25 149.33-13.4L149.33-13.4Q152.58-15.5 156.13-19 159.68-22.5 161.28-25.5Z" opacity="1" transform="matrix(1,0,0,1,0,0)" fill="#77d4fc" class="undefined-text-0" data-fill-palette-color="primary" id="text-0"></path></svg></g></svg></g><g transform="matrix(1,0,0,1,0,52.18753497748022)"><svg viewBox="0 0 208 15.933274802458296" height="15.933274802458296" width="208"><g transform="matrix(1,0,0,1,0,0)"><svg width="208" viewBox="1.6100000143051147 -31.610000610351562 523.6099853515625 40.12000274658203" height="15.933274802458296" data-palette-color="#77d4fc"><path d="M26.38-29.08L16.03-13.33 16.03-1.9Q16.03-0.57 14.83-0.11L14.83-0.11Q14.48 0 13.91 0 13.33 0 12.7-0.46 12.07-0.92 12.07-1.9L12.07-1.9 12.07-13.28 1.9-28.74Q1.61-29.08 1.61-29.48 1.61-29.89 1.78-30.23 1.95-30.57 2.3-30.86L2.3-30.86Q2.99-31.38 3.68-31.38L3.68-31.38Q4.94-31.38 5.52-30.34L5.52-30.34 14.31-16.38 14.37-16.38 23.22-30.46Q23.79-31.38 24.83-31.38L24.83-31.38Q25.98-31.38 26.44-30.46L26.44-30.46Q26.67-30.17 26.67-29.89L26.67-29.89Q26.67-29.54 26.38-29.08L26.38-29.08ZM29.88-10.86L29.88-10.86Q29.88-12.93 30.54-15 31.2-17.07 32.58-18.74L32.58-18.74Q35.46-22.24 40.74-22.24 46.03-22.24 48.91-18.74L48.91-18.74Q51.61-15.4 51.61-10.92L51.61-10.92Q51.61-6.38 48.91-3.1L48.91-3.1Q46.03 0.46 40.74 0.46 35.46 0.46 32.58-3.1L32.58-3.1Q29.88-6.32 29.88-10.86ZM33.62-10.86L33.62-10.86Q33.62-9.48 33.99-7.93 34.37-6.38 35.34-5.06L35.34-5.06Q37.3-2.24 40.74-2.24L40.74-2.24Q44.37-2.24 46.15-5.06L46.15-5.06Q47.81-7.7 47.81-10.92L47.81-10.92Q47.81-14.25 46.15-16.67L46.15-16.67Q44.31-19.54 40.74-19.54L40.74-19.54Q37.3-19.54 35.34-16.67L35.34-16.67Q33.62-14.31 33.62-10.86ZM75.45-20.11L75.45-1.61Q75.45-0.8 74.85-0.4 74.25 0 73.82 0 73.39 0 73.04-0.09 72.7-0.17 72.47-0.46L72.47-0.46Q71.89-0.86 71.89-1.61L71.89-1.61 71.89-3.62Q70.51-0.57 66.83 0.17L66.83 0.17Q65.68 0.46 64.36 0.46 63.04 0.46 61.6 0 60.17-0.46 59.13-1.49L59.13-1.49Q56.83-3.68 56.83-8.05L56.83-8.05 56.83-20.11Q56.83-20.92 57.35-21.38 57.87-21.84 58.56-21.84L58.56-21.84Q59.25-21.84 59.77-21.38 60.28-20.92 60.28-20.11L60.28-20.11 60.28-7.76Q60.28-4.66 61.55-3.45L61.55-3.45Q62.81-2.24 65.34-2.24L65.34-2.24Q69.59-2.24 71.2-5.69L71.2-5.69Q71.83-6.9 71.89-8.45L71.89-8.45 71.89-20.11Q71.89-20.92 72.47-21.38 73.04-21.84 73.73-21.84L73.73-21.84Q74.42-21.84 74.94-21.38 75.45-20.92 75.45-20.11L75.45-20.11ZM85.62-20.11L85.62-18.16Q87-22.24 91.66-22.24L91.66-22.24Q92.52-22.24 92.95-21.75 93.38-21.26 93.38-20.72 93.38-20.17 92.95-19.68 92.52-19.2 91.37-19.2 90.22-19.2 89.07-18.74 87.92-18.28 87.18-17.41L87.18-17.41Q85.62-15.52 85.62-12.41L85.62-12.41 85.62-1.61Q85.62-0.8 85.05-0.4 84.48 0 84.02 0 83.56 0 83.27-0.09 82.98-0.17 82.69-0.46L82.69-0.46Q82.18-0.8 82.18-1.61L82.18-1.61 82.18-20.11Q82.18-20.86 82.69-21.35 83.21-21.84 83.99-21.84 84.76-21.84 85.19-21.35 85.62-20.86 85.62-20.11L85.62-20.11ZM130.45-17.93L130.45-29.48Q130.45-30.8 131.77-31.21L131.77-31.21Q132.11-31.26 132.63-31.32 133.15-31.38 133.78-30.92 134.41-30.46 134.41-29.48L134.41-29.48 134.41-1.9Q134.41-1.03 133.9-0.57L133.9-0.57Q133.21 0 132.43 0 131.65 0 131.05-0.46 130.45-0.92 130.45-1.9L130.45-1.9 130.45-14.66 113.95-14.66 113.95-1.9Q113.95-1.03 113.49-0.57L113.49-0.57Q112.8 0 112 0 111.19 0 110.62-0.46 110.04-0.92 110.04-1.9L110.04-1.9 110.04-29.48Q110.04-30.8 111.31-31.21L111.31-31.21Q111.65-31.26 112.17-31.32 112.69-31.38 113.32-30.92 113.95-30.46 113.95-29.48L113.95-29.48 113.95-17.93 130.45-17.93ZM161.42-11.55L161.42-11.55Q161.42-10.34 160.04-10.23L160.04-10.23 144.3-10.23Q144.53-4.37 148.89-2.64L148.89-2.64Q150.1-2.24 151.65-2.24L151.65-2.24Q154.87-2.24 158.2-4.6L158.2-4.6Q159.24-5.17 159.93-4.48L159.93-4.48Q160.27-4.14 160.16-3.79L160.16-3.79Q160.16-2.99 159.76-2.64L159.76-2.64Q156.59 0.52 151.42 0.46L151.42 0.46Q146.71 0.46 143.84-2.59L143.84-2.59Q140.62-5.75 140.62-10.92L140.62-10.92Q140.62-15.69 143.26-18.79L143.26-18.79Q146.02-22.24 151.08-22.24L151.08-22.24Q156.13-22.24 158.78-19.2L158.78-19.2Q161.31-16.44 161.42-11.55ZM144.41-12.59L158.03-12.59Q157.86-15.69 156.02-17.7L156.02-17.7Q154.3-19.54 151.08-19.54L151.08-19.54Q148.32-19.54 146.36-17.47L146.36-17.47Q144.58-15.4 144.41-12.59L144.41-12.59ZM177.17-13.28L177.17-13.28Q178.37-13.28 179.58-13.22L179.58-13.22 179.58-15.06Q179.58-19.54 174.58-19.54L174.58-19.54Q172.34-19.54 171.3-19.14L171.3-19.14Q169.47-18.45 168.66-17.96 167.86-17.47 167.4-17.47 166.94-17.47 166.53-17.82 166.13-18.16 166.13-18.74L166.13-18.74Q166.13-19.2 166.65-19.66L166.65-19.66Q169.35-22.24 174.64-22.24L174.64-22.24Q180.73-22.24 182.45-18.16L182.45-18.16Q183.03-16.72 183.03-14.83L183.03-14.83 182.91-1.55Q182.91-0.8 182.4-0.4 181.88 0 181.25 0 180.61 0 180.1-0.34 179.58-0.69 179.58-1.49L179.58-1.49 179.58-3.56Q178.2-0.57 174.64 0.17L174.64 0.17Q173.55 0.46 172.17 0.46 170.79 0.46 169.44 0.06 168.09-0.34 167.05-1.21L167.05-1.21Q164.93-2.99 164.93-6.03L164.93-6.03Q164.93-13.28 177.17-13.28ZM179.58-8.74L179.58-10.69Q178.66-10.57 177.45-10.57 176.25-10.57 174.98-10.55 173.72-10.52 172.57-10.26 171.42-10 170.5-9.48L170.5-9.48Q168.55-8.45 168.43-6.09L168.43-6.09Q168.43-4.25 169.93-3.22L169.93-3.22Q171.07-2.3 173.2-2.24L173.2-2.24Q175.79-2.24 177.68-3.91L177.68-3.91Q179.41-5.52 179.58-8.74L179.58-8.74ZM189.64-1.72L189.64-29.54Q189.64-30.46 190.21-30.86 190.78-31.26 191.24-31.26 191.7-31.26 191.99-31.21 192.28-31.15 192.57-30.86L192.57-30.86Q193.2-30.46 193.2-29.54L193.2-29.54 193.2-1.72Q193.2-0.86 192.62-0.43 192.05 0 191.36 0L191.36 0Q190.67 0 190.15-0.43 189.64-0.86 189.64-1.72L189.64-1.72ZM211.47-1.26L211.47-1.26Q211.47 0.46 207.39 0.46L207.39 0.46Q204.35 0.46 203.08-1.21L203.08-1.21Q201.7-2.99 201.59-7.07L201.59-7.07 201.59-19.14 199.06-19.14Q198.37-19.14 197.97-19.57 197.56-20 197.56-20.46L197.56-20.46Q197.56-20.92 197.91-21.38 198.25-21.84 199.06-21.84L199.06-21.84 201.82-21.84 202.05-28.05Q202.16-28.74 202.68-29.11 203.2-29.48 203.77-29.48 204.35-29.48 204.75-29.14 205.15-28.79 205.15-28.05L205.15-28.05 205.15-21.84 209.12-21.84Q209.81-21.84 210.18-21.38 210.55-20.92 210.55-20.46L210.55-20.46Q210.55-19.89 210.18-19.51 209.81-19.14 209.12-19.14L209.12-19.14 205.15-19.14 205.15-8.97Q205.15-4.71 205.44-3.82 205.72-2.93 206.36-2.59 206.99-2.24 207.91-2.24L207.91-2.24 210.15-2.41Q210.78-2.41 211.13-2.01 211.47-1.61 211.47-1.26ZM230.43-1.61L230.43-14.14Q230.43-16.78 228.94-18.28L228.94-18.28Q227.62-19.54 225.87-19.54 224.11-19.54 222.91-19.14 221.7-18.74 220.78-17.82L220.78-17.82Q218.83-15.98 218.83-12.59L218.83-12.59 218.83-1.61Q218.83-0.8 218.25-0.4 217.68 0 216.99 0L216.99 0Q216.3 0 215.84-0.43 215.38-0.86 215.38-1.61L215.38-1.61 215.38-29.66Q215.38-30.46 215.95-30.86 216.53-31.26 217.1-31.26L217.1-31.26Q217.79-31.26 218.31-30.89 218.83-30.52 218.83-29.66L218.83-29.66 218.83-18.1Q219.63-20.11 221.81-21.21L221.81-21.21Q223.83-22.24 225.81-22.24 227.79-22.24 229.17-21.75 230.55-21.26 231.7-20.34L231.7-20.34Q234-18.16 234-13.91L234-13.91 234-1.61Q234-0.8 233.39-0.4 232.79 0 232.16 0L232.16 0Q231.47 0 230.95-0.43 230.43-0.86 230.43-1.61L230.43-1.61ZM253.42-1.9L253.42-29.48Q253.42-30.69 254.57-31.21L254.57-31.21Q254.91-31.26 255.54-31.32 256.18-31.38 256.72-30.92 257.27-30.46 257.27-29.48L257.27-29.48 257.27-1.9Q257.27-0.52 256.06-0.11L256.06-0.11Q255.72 0 255.14 0 254.57 0 253.99-0.46 253.42-0.92 253.42-1.9L253.42-1.9ZM272.96-19.54L272.96-19.54Q267.96-19.54 268.07-16.38L268.07-16.38Q268.07-14.37 270.94-13.62L270.94-13.62Q271.92-13.33 273.04-13.1 274.16-12.87 275.48-12.56 276.81-12.24 278.19-11.72L278.19-11.72Q280.14-11.15 281.2-9.8 282.27-8.45 282.27-6.55L282.27-6.55Q282.27-3.1 279.34-1.21L279.34-1.21Q276.69 0.52 272.67 0.46L272.67 0.46Q269.68 0.46 266.81-0.57L266.81-0.57Q265.66-1.03 264.97-1.67 264.28-2.3 264.28-2.87 264.28-3.45 264.65-3.79 265.02-4.14 265.54-4.14 266.06-4.14 266.72-3.85 267.38-3.56 268.42-3.22L268.42-3.22Q271.06-2.24 272.67-2.24 274.28-2.24 275.25-2.44 276.23-2.64 277.04-3.1L277.04-3.1Q278.76-4.25 278.76-6.09L278.76-6.09Q278.76-7.41 277.93-8.13 277.09-8.85 275.8-9.25 274.51-9.66 273.24-9.94 271.98-10.23 270.71-10.52 269.45-10.8 268.3-11.21 267.15-11.61 266.35-12.3L266.35-12.3Q264.39-13.68 264.39-16.21L264.39-16.21Q264.39-19.43 267.09-20.86L267.09-20.86Q269.34-22.24 273.01-22.24L273.01-22.24Q276.75-22.24 278.99-21.15L278.99-21.15Q280.89-20.17 280.89-18.97L280.89-18.97Q280.89-18.51 280.51-18.22 280.14-17.93 279.68-17.93L279.68-17.93Q278.82-17.93 278.39-18.22 277.96-18.51 277.44-18.79 276.92-19.08 276.23-19.2L276.23-19.2Q274.97-19.54 272.96-19.54ZM303.38-20.2Q302.84-17.82 302.84-15.55 302.84-13.28 303.38-10.86 303.93-8.45 305.25-6.64 306.57-4.83 308.53-3.74 310.48-2.64 313.3-2.64 316.11-2.64 318.12-3.74 320.13-4.83 321.4-6.64 322.66-8.45 323.27-10.86 323.87-13.28 323.87-15.55 323.87-17.82 323.27-20.2 322.66-22.59 321.4-24.4 320.13-26.21 318.12-27.3 316.11-28.39 313.3-28.39 310.48-28.39 308.53-27.3 306.57-26.21 305.25-24.4 303.93-22.59 303.38-20.2ZM298.53-15.63L298.53-15.63Q298.53-18.97 299.5-21.95 300.48-24.94 302.43-27.07L302.43-27.07Q306.34-31.55 313.24-31.61L313.24-31.61Q320.25-31.61 324.22-27.07L324.22-27.07Q326.11-24.94 327.06-21.95 328.01-18.97 328.01-15.63L328.01-15.63Q328.01-12.24 327.06-9.17 326.11-6.09 324.22-4.02L324.22-4.02Q320.25 0.46 313.24 0.46L313.24 0.46Q306.28 0.46 302.43-4.02L302.43-4.02Q300.48-6.21 299.5-9.22 298.53-12.24 298.53-15.63ZM352.83-20.11L352.83-1.61Q352.83-0.8 352.23-0.4 351.63 0 351.2 0 350.76 0 350.42-0.09 350.07-0.17 349.85-0.46L349.85-0.46Q349.27-0.86 349.27-1.61L349.27-1.61 349.27-3.62Q347.89-0.57 344.21 0.17L344.21 0.17Q343.06 0.46 341.74 0.46 340.42 0.46 338.98 0 337.55-0.46 336.51-1.49L336.51-1.49Q334.21-3.68 334.21-8.05L334.21-8.05 334.21-20.11Q334.21-20.92 334.73-21.38 335.25-21.84 335.94-21.84L335.94-21.84Q336.63-21.84 337.14-21.38 337.66-20.92 337.66-20.11L337.66-20.11 337.66-7.76Q337.66-4.66 338.93-3.45L338.93-3.45Q340.19-2.24 342.72-2.24L342.72-2.24Q346.97-2.24 348.58-5.69L348.58-5.69Q349.21-6.9 349.27-8.45L349.27-8.45 349.27-20.11Q349.27-20.92 349.85-21.38 350.42-21.84 351.11-21.84L351.11-21.84Q351.8-21.84 352.32-21.38 352.83-20.92 352.83-20.11L352.83-20.11ZM363-20.11L363-18.16Q364.38-22.24 369.04-22.24L369.04-22.24Q369.9-22.24 370.33-21.75 370.76-21.26 370.76-20.72 370.76-20.17 370.33-19.68 369.9-19.2 368.75-19.2 367.6-19.2 366.45-18.74 365.3-18.28 364.56-17.41L364.56-17.41Q363-15.52 363-12.41L363-12.41 363-1.61Q363-0.8 362.43-0.4 361.85 0 361.39 0 360.93 0 360.65-0.09 360.36-0.17 360.07-0.46L360.07-0.46Q359.56-0.8 359.56-1.61L359.56-1.61 359.56-20.11Q359.56-20.86 360.07-21.35 360.59-21.84 361.37-21.84 362.14-21.84 362.57-21.35 363-20.86 363-20.11L363-20.11ZM397.14-13.68L391.33-13.68 391.33-1.9Q391.33-0.52 390.07-0.11L390.07-0.11Q389.72 0 389.21 0 388.69 0 388.08-0.46 387.48-0.92 387.48-1.9L387.48-1.9 387.48-29.43Q387.48-30.57 388.69-31.21L388.69-31.21Q389.03-31.38 389.49-31.38L389.49-31.38 397.31-31.38Q407.08-31.38 409.21-25.4L409.21-25.4Q409.72-24.02 409.72-22.47 409.72-20.92 409.26-19.6 408.8-18.28 407.94-17.24 407.08-16.21 405.87-15.57 404.67-14.94 403.29-14.48L403.29-14.48Q400.58-13.68 397.14-13.68L397.14-13.68ZM391.33-16.78L397.83-16.78Q401.56-16.78 403.34-18.05L403.34-18.05Q405.7-19.54 405.7-22.59L405.7-22.59Q405.7-25.52 403.34-27.01L403.34-27.01Q401.56-28.16 397.88-28.28L397.88-28.28 391.33-28.28 391.33-16.78ZM418.05-20.11L418.05-18.16Q419.43-22.24 424.09-22.24L424.09-22.24Q424.95-22.24 425.38-21.75 425.81-21.26 425.81-20.72 425.81-20.17 425.38-19.68 424.95-19.2 423.8-19.2 422.65-19.2 421.5-18.74 420.35-18.28 419.61-17.41L419.61-17.41Q418.05-15.52 418.05-12.41L418.05-12.41 418.05-1.61Q418.05-0.8 417.48-0.4 416.9 0 416.44 0 415.98 0 415.7-0.09 415.41-0.17 415.12-0.46L415.12-0.46Q414.61-0.8 414.61-1.61L414.61-1.61 414.61-20.11Q414.61-20.86 415.12-21.35 415.64-21.84 416.42-21.84 417.19-21.84 417.62-21.35 418.05-20.86 418.05-20.11L418.05-20.11ZM434.26-29.43L434.26-29.43Q434.26-28.51 433.63-27.93 432.99-27.36 431.84-27.36 430.69-27.36 430.06-27.93 429.43-28.51 429.43-29.43L429.43-29.43Q429.43-30.23 430.06-30.8 430.69-31.38 431.87-31.38 433.05-31.38 433.65-30.8 434.26-30.23 434.26-29.43ZM430.12-1.72L430.12-20Q430.12-20.86 430.69-21.35 431.27-21.84 431.73-21.84 432.19-21.84 432.48-21.7 432.76-21.55 433.05-21.26L433.05-21.26Q433.68-20.86 433.68-20L433.68-20 433.68-1.72Q433.68-0.86 433.11-0.43 432.53 0 431.84 0L431.84 0Q431.15 0 430.64-0.43 430.12-0.86 430.12-1.72L430.12-1.72ZM438.91-10.86L438.91-10.86Q438.91-12.93 439.57-15 440.23-17.07 441.61-18.74L441.61-18.74Q444.49-22.24 449.77-22.24 455.06-22.24 457.93-18.74L457.93-18.74Q460.63-15.4 460.63-10.92L460.63-10.92Q460.63-6.38 457.93-3.1L457.93-3.1Q455.06 0.46 449.77 0.46 444.49 0.46 441.61-3.1L441.61-3.1Q438.91-6.32 438.91-10.86ZM442.65-10.86L442.65-10.86Q442.65-9.48 443.02-7.93 443.39-6.38 444.37-5.06L444.37-5.06Q446.32-2.24 449.77-2.24L449.77-2.24Q453.39-2.24 455.17-5.06L455.17-5.06Q456.84-7.7 456.84-10.92L456.84-10.92Q456.84-14.25 455.17-16.67L455.17-16.67Q453.34-19.54 449.77-19.54L449.77-19.54Q446.32-19.54 444.37-16.67L444.37-16.67Q442.65-14.31 442.65-10.86ZM469.31-20.11L469.31-18.16Q470.69-22.24 475.34-22.24L475.34-22.24Q476.21-22.24 476.64-21.75 477.07-21.26 477.07-20.72 477.07-20.17 476.64-19.68 476.21-19.2 475.06-19.2 473.91-19.2 472.76-18.74 471.61-18.28 470.86-17.41L470.86-17.41Q469.31-15.52 469.31-12.41L469.31-12.41 469.31-1.61Q469.31-0.8 468.74-0.4 468.16 0 467.7 0 467.24 0 466.95-0.09 466.67-0.17 466.38-0.46L466.38-0.46Q465.86-0.8 465.86-1.61L465.86-1.61 465.86-20.11Q465.86-20.86 466.38-21.35 466.9-21.84 467.67-21.84 468.45-21.84 468.88-21.35 469.31-20.86 469.31-20.11L469.31-20.11ZM485.51-29.43L485.51-29.43Q485.51-28.51 484.88-27.93 484.25-27.36 483.1-27.36 481.95-27.36 481.32-27.93 480.69-28.51 480.69-29.43L480.69-29.43Q480.69-30.23 481.32-30.8 481.95-31.38 483.13-31.38 484.31-31.38 484.91-30.8 485.51-30.23 485.51-29.43ZM481.38-1.72L481.38-20Q481.38-20.86 481.95-21.35 482.53-21.84 482.99-21.84 483.45-21.84 483.73-21.7 484.02-21.55 484.31-21.26L484.31-21.26Q484.94-20.86 484.94-20L484.94-20 484.94-1.72Q484.94-0.86 484.37-0.43 483.79 0 483.1 0L483.1 0Q482.41 0 481.89-0.43 481.38-0.86 481.38-1.72L481.38-1.72ZM503.21-1.26L503.21-1.26Q503.21 0.46 499.13 0.46L499.13 0.46Q496.09 0.46 494.82-1.21L494.82-1.21Q493.44-2.99 493.33-7.07L493.33-7.07 493.33-19.14 490.8-19.14Q490.11-19.14 489.71-19.57 489.31-20 489.31-20.46L489.31-20.46Q489.31-20.92 489.65-21.38 489.99-21.84 490.8-21.84L490.8-21.84 493.56-21.84 493.79-28.05Q493.9-28.74 494.42-29.11 494.94-29.48 495.51-29.48 496.09-29.48 496.49-29.14 496.89-28.79 496.89-28.05L496.89-28.05 496.89-21.84 500.86-21.84Q501.55-21.84 501.92-21.38 502.29-20.92 502.29-20.46L502.29-20.46Q502.29-19.89 501.92-19.51 501.55-19.14 500.86-19.14L500.86-19.14 496.89-19.14 496.89-8.97Q496.89-4.71 497.18-3.82 497.47-2.93 498.1-2.59 498.73-2.24 499.65-2.24L499.65-2.24 501.89-2.41Q502.52-2.41 502.87-2.01 503.21-1.61 503.21-1.26ZM510.74 6.32L513.33-0.17 504.88-19.48Q504.71-19.83 504.71-20.17 504.71-20.52 504.88-20.83 505.05-21.15 505.28-21.26L505.28-21.26Q505.97-21.72 506.6-21.84L506.6-21.84Q507.81-21.84 508.33-20.69L508.33-20.69 515.16-4.14 521.95-20.69Q522.46-21.84 523.3-21.84 524.13-21.84 524.68-21.35 525.22-20.86 525.22-20.34 525.22-19.83 525.05-19.48L525.05-19.48 514.02 7.36Q513.5 8.51 512.41 8.51L512.41 8.51Q511.72 8.51 511.26 8.16L511.26 8.16Q510.57 7.59 510.57 7.07 510.57 6.55 510.74 6.32L510.74 6.32Z" opacity="1" transform="matrix(1,0,0,1,0,0)" fill="#77d4fc" class="undefined-text-1" data-fill-palette-color="secondary" id="text-1"></path></svg></g></svg></g></svg></g></svg></g><g><svg viewBox="0 0 119.12461239164568 94.14295911587506" height="94.14295911587506" width="119.12461239164568"><g><svg xmlns="http://www.w3.org/2000/svg" xmlns:xlink="http://www.w3.org/1999/xlink" version="1.1" x="0" y="0" viewBox="2.822999954223633 12.981998443603516 94.35400390625 74.56700134277344" enable-background="new 0 0 100 100" xml:space="preserve" height="94.14295911587506" width="119.12461239164568" class="icon-icon-0" data-fill-palette-color="accent" id="icon-0"><path fill="#77d4fc" d="M49.997 87.549l-36.819-28.54C6.609 54.122 2.823 46.657 2.823 38.552c0-14.1 11.472-25.57 25.573-25.57 8.85 0 16.964 4.573 21.601 11.92 4.638-7.347 12.757-11.92 21.614-11.92 14.098 0 25.566 11.471 25.566 25.57 0 8.111-3.786 15.576-10.388 20.481L49.997 87.549zM28.396 16.981c-11.896 0-21.573 9.676-21.573 21.57 0 6.828 3.198 13.123 8.773 17.271l34.4 26.665 34.375-26.642c5.608-4.167 8.806-10.462 8.806-17.295 0-11.894-9.675-21.57-21.566-21.57-8.586 0-16.35 5.096-19.78 12.983l-1.834 4.216-1.834-4.216C44.733 22.078 36.974 16.981 28.396 16.981z" data-fill-palette-color="accent"></path><polygon points="41.217,50.026 40.455,52.201 27.673,52.201 27.673,48.643 37.931,48.643 40.816,40.402 48.315,57.197   56.207,32.901 62.359,49.532 72.329,49.532 72.329,53.09 59.881,53.09 56.426,43.747 48.84,67.1 " fill="#77d4fc" data-fill-palette-color="accent"></polygon></svg></g></svg></g></svg></g></svg></g></svg></g></svg></g><defs></defs></svg><rect width="320" height="360" fill="none" stroke="none" visibility="hidden"></rect></g></svg></g></svg>